<svg xmlns="http://www.w3.org/2000/svg" xmlns:xlink="http://www.w3.org/1999/xlink" width="0" height="0" style="position:absolute">
	
		<symbol id="svg-icon-cart" viewBox="0 0 21 20">
			<path fill="#fff" d="M20.58 4.46l-1.2 8.91c-.2.92-1.03 1.64-1.89 1.64H6.61c-.86 0-1.7-.72-1.88-1.64L3.26 3.1a3.67 3.67 0 0 1-.13-1.06H1a1 1 0 1 1 0-2h4a.99.99 0 1 1 .1 1.98h13.97c1.1 0 1.77 1.13 1.5 2.45zm-3.18 8.52v-.02l1.2-8.78.02-.2H5.42l1.31 9zm-10.15 3a1.87 1.87 0 1 1 0 3.76 1.87 1.87 0 0 1 0-3.75zm9 0a1.87 1.87 0 1 1 0 3.76 1.87 1.87 0 0 1 0-3.75z"></path>
		</symbol>
	
		<symbol id="svg-icon-enter" viewBox="0 0 22 19">
			<path fill="#fff" fill-opacity=".99" d="M4 3.97V3a3 3 0 0 1 3-3h11.06a3 3 0 0 1 3 3v12.98a3 3 0 0 1-3 3H7a3 3 0 0 1-3-3V15h2v2h13V2H6v1.97zM1 6.9h6.02V4.16l7.03 5.3-7.03 5.3V12H1z"></path>
		</symbol>
	
		<symbol id="svg-icon-fb" viewBox="0 0 38 38">
			<path fill="#fff" d="M18.93.24a18.62 18.62 0 1 1 0 37.23 18.62 18.62 0 0 1 0-37.23zM3.17 18.92a15.69 15.69 0 1 0 31.38 0 15.69 15.69 0 0 0-31.38 0z"></path><path fill="#fff" d="M18.87 3.23a15.69 15.69 0 1 1 0 31.37 15.69 15.69 0 0 1 0-31.37zm.77 24.99v-9.29h2.74l.29-3.09h-3.03v-1.86c0-.89.09-1.25 1.37-1.25h1.76V9.3h-2.79c-3.3 0-4.08 1.54-4.08 4.34v2.2h-1.89v3.09h1.89v9.29z"></path>
		</symbol>
	
		<symbol id="svg-icon-feature-1" viewBox="0 0 49 49">
			<path fill="#323232" d="M30.45 10.45a8.52 8.52 0 0 0-6.06-2.51c-2.29 0-4.44.89-6.06 2.51a8.51 8.51 0 0 0-2.51 6.06v14.68c0 .45.36.81.8.81h15.54a.8.8 0 0 0 .8-.81V16.51c0-2.29-.89-4.44-2.5-6.06zm.9 19.93H17.43V19.49l.15.16c.43.47 1.01 1.13 2.15 1.13s1.73-.66 2.16-1.13c.36-.42.55-.6.94-.6.02.01.14.09.31.43.17.33.33.79.49 1.22.2.58.41 1.17.7 1.65.42.72.96 1.08 1.61 1.08.65 0 1.2-.36 1.62-1.08.28-.48.5-1.07.7-1.65.15-.43.31-.89.49-1.22.17-.34.28-.42.3-.43.4 0 .58.18.95.6.32.34.71.79 1.35 1zm-9 8.58a2.05 2.05 0 0 0 4.09 0V32.8h-4.1zM24.5.8a23.7 23.7 0 1 1 0 47.4 23.7 23.7 0 0 1 0-47.4zm21.7 23.7c0-11.97-9.73-21.7-21.7-21.7A21.72 21.72 0 0 0 2.8 24.5c0 11.97 9.73 21.7 21.7 21.7 11.97 0 21.7-9.73 21.7-21.7z"></path>
		</symbol>
	
		<symbol id="svg-icon-feature-2" viewBox="0 0 49 49">
			<path fill="#323232" d="M24.44 40.62s-22.24-10.18 0-32.75c22.24 22.57 0 32.75 0 32.75zm7.51-17.18l-6.53 4.16-.02 3.68 6.89-4.41c.05-1.11-.08-2.26-.34-3.43zm-15.39 3.19l6.84 4.48v-3.62l-6.46-4.15c-.25 1.12-.4 2.22-.38 3.29zm6.84-1.52v-3.63L19 18.1a21.74 21.74 0 0 0-1.47 3.24zm0-6.09v-7.04a39.18 39.18 0 0 0-3.36 4.42zm2 .28l3.63-2.6a39.5 39.5 0 0 0-3.63-4.82zm.02 2.3l-.02 3.68 5.98-3.85c-.35-.98-.79-1.99-1.34-3.01zm6.44 7.9l-6.44 4.1-.02 4.16c2.07-1.36 5.3-4.11 6.46-8.26zm-8.46 8.2v-4.21l-6.42-4.13c1.1 4.14 4.32 6.93 6.42 8.34zM.8 24.5a23.7 23.7 0 1 0 47.4 0 23.7 23.7 0 0 0-47.4 0zm23.7 21.7A21.72 21.72 0 0 1 2.8 24.5c0-11.97 9.73-21.7 21.7-21.7 11.97 0 21.7 9.73 21.7 21.7 0 11.97-9.73 21.7-21.7 21.7z"></path>
		</symbol>
	
		<symbol id="svg-icon-feature-3" viewBox="0 0 48 49">
			<path fill="#323232" d="M39.58 24a2.42 2.42 0 0 1-2.13 1.04c-.89 0-2.2-.38-3.26-.84.23 2.52-.27 5.4-1.57 8.35.47.95.67 2 .52 3.08-.5 3.38-4.29 5.23-8.53 5.23-4.24 0-8.02-1.85-8.48-5.23-.12-.91 0-1.8.33-2.62a17.33 17.33 0 0 1-1.78-8.73 8.93 8.93 0 0 1-3.07.76A2.42 2.42 0 0 1 9.48 24a2.33 2.33 0 0 1-.16-2.22c.81-1.91 3.6-2.74 4.75-3.01l.1-.02c-1.4-2.9-.73-7.6-.2-9.19l3.06.25c.05 1 .76 2.88 3.43 5.01l1.59 1.09a12.92 12.92 0 0 1 4.68-.02l1.7-1.16c2.67-2.13 3.38-4.01 3.43-5.01l3.06-.26c.53 1.6 1.2 6.35-.22 9.24l.29.07c1.16.27 3.94 1.1 4.75 3.01.32.76.26 1.57-.16 2.22zM14.5 20.72s-2.86.66-3.36 1.85c-.5 1.18 3.15-.14 3.83-.7a2.33 2.33 0 0 1-.47-1.15zm3.3.07c-1.76 2.75-1.58 7 .46 11.37l.37.78-.32.8a3.2 3.2 0 0 0-.2 1.62c.32 2.41 3.6 3.5 6.5 3.5s6.19-1.1 6.54-3.52c.09-.64-.02-1.28-.33-1.9l-.42-.84.38-.86c1.88-4.25 1.97-8.37.24-11.02-1.3-1.99-3.57-3.04-6.58-3.04-3.05 0-5.35 1.07-6.64 3.11zm20.09 1.78c-.5-1.19-3.36-1.85-3.36-1.85-.12.56-.15.68-.48 1.15.69.56 4.34 1.88 3.84.7zm-18.57-6.1s-3.6-2.48-3.74-5.02c-.4 2.18-.58 5.62.7 6.99.65-.33 1.67-1.41 3.04-1.97zm13.26 1.87c1.3-1.37 1.11-4.81.7-6.98-.13 2.54-3.73 5.01-3.73 5.01 1.37.57 2.39 1.65 3.03 1.97zM.5 24.5a23.7 23.7 0 1 0 47.4 0 23.7 23.7 0 0 0-47.4 0zm23.7 21.7A21.72 21.72 0 0 1 2.5 24.5c0-11.97 9.73-21.7 21.7-21.7 11.96 0 21.7 9.73 21.7 21.7 0 11.97-9.74 21.7-21.7 21.7z"></path>
		</symbol>
	
		<symbol id="svg-icon-feature-4" viewBox="0 0 48 49">
			<path fill="#323232" d="M24.02 39.33a6.81 6.81 0 0 1-6.82-6.77c0-1.62.82-3.28 1.82-4.6V13.12a4.98 4.98 0 0 1 5-4.95c2.76 0 5 2.22 5 4.95v14.91a7.63 7.63 0 0 1 1.78 4.53 6.78 6.78 0 0 1-6.78 6.77zm4.8-6.77a5.1 5.1 0 0 0-1.75-3.72V13.12a3 3 0 0 0-3-2.95 3 3 0 0 0-3 2.95v15.66a5.24 5.24 0 0 0-1.85 3.78 4.8 4.8 0 0 0 9.6 0zm-2.1-.14a2.77 2.77 0 1 1-3.67-2.61V12.97c0-.52.43-.94.95-.94.53 0 .95.42.95.94v16.87c1.04.4 1.78 1.4 1.78 2.58zM32 16h4a1 1 0 0 1 0 2h-4a1 1 0 0 1 0-2zm0-4h4a1 1 0 0 1 0 2h-4a1 1 0 0 1 0-2zm0 8h4a1 1 0 0 1 0 2h-4a1 1 0 0 1 0-2zm0 4h4a1 1 0 0 1 0 2h-4a1 1 0 0 1 0-2zm-31.52.5a23.7 23.7 0 1 0 47.4 0 23.7 23.7 0 0 0-47.4 0zm23.7 21.7a21.72 21.72 0 0 1-21.7-21.7c0-11.97 9.74-21.7 21.7-21.7 11.97 0 21.7 9.73 21.7 21.7 0 11.97-9.73 21.7-21.7 21.7z"></path>
		</symbol>
	
		<symbol id="svg-icon-heart" viewBox="0 0 15 13">
			<path fill="#f7f8f8" d="M7.6 12.73l.03-.01.01.01v-.02c.59-.3 7.25-3.78 7.25-8.2 0-5.1-5.43-5.93-7.27-1.78C5.8-1.42.37-.59.37 4.51c0 4.42 6.66 7.9 7.24 8.2v.02z"></path>
		</symbol>
	
		<symbol id="svg-icon-insta" viewBox="0 0 38 38">
			<path fill="#fff" d="M18.93.24a18.62 18.62 0 1 1 0 37.23 18.62 18.62 0 0 1 0-37.23zM3.17 18.92a15.69 15.69 0 1 0 31.38 0 15.69 15.69 0 0 0-31.38 0z"></path><path fill="#fff" d="M18.86 3.23a15.69 15.69 0 1 1 .01 31.38 15.69 15.69 0 0 1 0-31.38zm6.28 23.61c.96 0 1.74-.78 1.74-1.75V12.78c0-.96-.78-1.74-1.74-1.74H12.8c-.96 0-1.75.78-1.75 1.74v12.31c0 .97.78 1.75 1.75 1.75zm0-9.1v6.78a.6.6 0 0 1-.61.61H13.46a.6.6 0 0 1-.6-.61v-6.78h1.37a4.93 4.93 0 1 0 9.53 0h1.38zM19 16.13c1.57 0 3.06 1.15 3.06 2.84s-1.5 2.84-3.06 2.84a2.84 2.84 0 1 1 0-5.68zm3.7-3.31h1.86a.6.6 0 0 1 .61.61v1.86a.6.6 0 0 1-.61.61H22.7a.6.6 0 0 1-.62-.61v-1.86a.6.6 0 0 1 .62-.61z"></path>
		</symbol>
	
		<symbol id="svg-icon-search" viewBox="0 0 17 17">
			<path fill="#fff" d="M12.15 10.75h-.75l-.27-.26a6.2 6.2 0 1 0-.68.67l.27.26v.76l4.77 4.76 1.43-1.42zm-5.73 0a4.3 4.3 0 1 1 0-8.6 4.3 4.3 0 0 1 0 8.6z"></path>
		</symbol>
	
		<symbol id="svg-icon-twitter" viewBox="0 0 39 38">
			<path fill="#fff" d="M19.43.24a18.62 18.62 0 1 1 0 37.23 18.62 18.62 0 0 1 0-37.23zM3.73 18.86a15.7 15.7 0 1 0 31.4 0 15.7 15.7 0 0 0-31.4 0z"></path><path fill="#fff" d="M19.43 3.17a15.69 15.69 0 1 1 0 31.38 15.69 15.69 0 0 1 0-31.38zm9.13 10.81c-.65.29-1.35.48-2.09.57a3.66 3.66 0 0 0 1.6-2.02 7.4 7.4 0 0 1-2.3.89 3.64 3.64 0 0 0-6.2 3.32 10.32 10.32 0 0 1-7.52-3.81 3.66 3.66 0 0 0 1.12 4.87 3.68 3.68 0 0 1-1.65-.46v.05a3.65 3.65 0 0 0 2.93 3.57 3.79 3.79 0 0 1-1.65.06 3.64 3.64 0 0 0 3.4 2.53 7.29 7.29 0 0 1-5.39 1.51 10.34 10.34 0 0 0 5.58 1.64c6.7 0 10.37-5.55 10.37-10.37l-.01-.47a7.33 7.33 0 0 0 1.81-1.88z"></path>
		</symbol>
	
		<symbol id="svg-icon-vk" viewBox="0 0 38 38">
			<path fill="#fff" d="M18.93.24a18.62 18.62 0 1 1 0 37.23 18.62 18.62 0 0 1 0-37.23zM3.17 18.92a15.69 15.69 0 1 0 31.38 0 15.69 15.69 0 0 0-31.38 0z"></path><path fill="#fff" d="M18.87 3.23a15.69 15.69 0 1 1 0 31.37 15.69 15.69 0 0 1 0-31.37zm5.2 16.05a3.7 3.7 0 0 0-2.01-1.09v-.07a2.88 2.88 0 0 0 1.37-1.14c.33-.52.5-1.11.5-1.77 0-.57-.12-1.08-.36-1.52a2.6 2.6 0 0 0-1.1-1.05c-.44-.24-.93-.4-1.44-.48a18 18 0 0 0-2.27-.11h-4.8v13.59h5.44a8.9 8.9 0 0 0 2.33-.25 4.77 4.77 0 0 0 1.69-.86c.43-.33.77-.76 1.03-1.27s.38-1.1.38-1.78a3.1 3.1 0 0 0-.76-2.2zm-3.61-3.39c0 .3-.05.56-.16.79-.1.22-.29.4-.56.53-.25.11-.5.18-.73.19l-1.23.02h-.43v-2.88h.24l1.38.01c.3.01.57.07.8.17a1 1 0 0 1 .52.5c.11.23.17.45.17.67zm.64 6.41c-.14.26-.37.45-.68.59-.35.15-.7.23-1.04.24-.34.02-.95.02-1.84.02h-.18v-3.4h.63l1.45.01c.36.01.65.05.85.13.34.12.6.3.77.54.17.24.26.57.26.99 0 .32-.07.62-.22.88z"></path>
		</symbol>
	
</svg>
