<svg xmlns="http://www.w3.org/2000/svg" width="48" height="49" viewBox="0 0 48 49"><path fill="#323232" d="M39.58 24a2.42 2.42 0 0 1-2.13 1.04c-.89 0-2.2-.38-3.26-.84.23 2.52-.27 5.4-1.57 8.35.47.95.67 2 .52 3.08-.5 3.38-4.29 5.23-8.53 5.23-4.24 0-8.02-1.85-8.48-5.23-.12-.91 0-1.8.33-2.62a17.33 17.33 0 0 1-1.78-8.73 8.93 8.93 0 0 1-3.07.76A2.42 2.42 0 0 1 9.48 24a2.33 2.33 0 0 1-.16-2.22c.81-1.91 3.6-2.74 4.75-3.01l.1-.02c-1.4-2.9-.73-7.6-.2-9.19l3.06.25c.05 1 .76 2.88 3.43 5.01l1.59 1.09a12.92 12.92 0 0 1 4.68-.02l1.7-1.16c2.67-2.13 3.38-4.01 3.43-5.01l3.06-.26c.53 1.6 1.2 6.35-.22 9.24l.29.07c1.16.27 3.94 1.1 4.75 3.01.32.76.26 1.57-.16 2.22zM14.5 20.72s-2.86.66-3.36 1.85c-.5 1.18 3.15-.14 3.83-.7a2.33 2.33 0 0 1-.47-1.15zm3.3.07c-1.76 2.75-1.58 7 .46 11.37l.37.78-.32.8a3.2 3.2 0 0 0-.2 1.62c.32 2.41 3.6 3.5 6.5 3.5s6.19-1.1 6.54-3.52c.09-.64-.02-1.28-.33-1.9l-.42-.84.38-.86c1.88-4.25 1.97-8.37.24-11.02-1.3-1.99-3.57-3.04-6.58-3.04-3.05 0-5.35 1.07-6.64 3.11zm20.09 1.78c-.5-1.19-3.36-1.85-3.36-1.85-.12.56-.15.68-.48 1.15.69.56 4.34 1.88 3.84.7zm-18.57-6.1s-3.6-2.48-3.74-5.02c-.4 2.18-.58 5.62.7 6.99.65-.33 1.67-1.41 3.04-1.97zm13.26 1.87c1.3-1.37 1.11-4.81.7-6.98-.13 2.54-3.73 5.01-3.73 5.01 1.37.57 2.39 1.65 3.03 1.97zM.5 24.5a23.7 23.7 0 1 0 47.4 0 23.7 23.7 0 0 0-47.4 0zm23.7 21.7a21.72 21.72 0 0 1-21.7-21.7c0-11.97 9.73-21.7 21.7-21.7 11.96 0 21.7 9.73 21.7 21.7 0 11.97-9.74 21.7-21.7 21.7z"/></svg>