<svg xmlns="http://www.w3.org/2000/svg" width="49" height="49" viewBox="0 0 49 49"><path fill="#323232" d="M30.45 10.45a8.52 8.52 0 0 0-6.06-2.51c-2.29 0-4.44.89-6.06 2.51a8.51 8.51 0 0 0-2.51 6.06v14.68c0 .45.36.81.8.81h15.54a.8.8 0 0 0 .8-.81V16.51c0-2.29-.89-4.44-2.5-6.06zm.9 19.93H17.43V19.49l.15.16c.43.47 1.01 1.13 2.15 1.13s1.73-.66 2.16-1.13c.36-.42.55-.6.94-.6.02.01.14.09.31.43.17.33.33.79.49 1.22.2.58.41 1.17.7 1.65.42.72.96 1.08 1.61 1.08.65 0 1.2-.36 1.62-1.08.28-.48.5-1.07.7-1.65.15-.43.31-.89.49-1.22.17-.34.28-.42.3-.43.4 0 .58.18.95.6.32.34.71.79 1.35 1zm-9 8.58a2.05 2.05 0 0 0 4.09 0V32.8h-4.1zM24.5.8a23.7 23.7 0 1 1 0 47.4 23.7 23.7 0 0 1 0-47.4zm21.7 23.7c0-11.97-9.73-21.7-21.7-21.7A21.72 21.72 0 0 0 2.8 24.5c0 11.97 9.73 21.7 21.7 21.7 11.97 0 21.7-9.73 21.7-21.7z"/></svg>