<svg xmlns="http://www.w3.org/2000/svg" width="49" height="49" viewBox="0 0 49 49"><path fill="#323232" d="M24.44 40.62s-22.24-10.18 0-32.75c22.24 22.57 0 32.75 0 32.75zm7.51-17.18l-6.53 4.16-.02 3.68 6.89-4.41c.05-1.11-.08-2.26-.34-3.43zm-15.39 3.19l6.84 4.48v-3.62l-6.46-4.15c-.25 1.12-.4 2.22-.38 3.29zm6.84-1.52v-3.63L19 18.1a21.74 21.74 0 0 0-1.47 3.24zm0-6.09v-7.04a39.18 39.18 0 0 0-3.36 4.42zm2 .28l3.63-2.6a39.5 39.5 0 0 0-3.63-4.82zm.02 2.3l-.02 3.68 5.98-3.85c-.35-.98-.79-1.99-1.34-3.01zm6.44 7.9l-6.44 4.1-.02 4.16c2.07-1.36 5.3-4.11 6.46-8.26zm-8.46 8.2v-4.21l-6.42-4.13c1.1 4.14 4.32 6.93 6.42 8.34zM.8 24.5a23.7 23.7 0 1 0 47.4 0 23.7 23.7 0 0 0-47.4 0zm23.7 21.7A21.72 21.72 0 0 1 2.8 24.5c0-11.97 9.73-21.7 21.7-21.7 11.97 0 21.7 9.73 21.7 21.7 0 11.97-9.73 21.7-21.7 21.7z"/></svg>