<svg xmlns="http://www.w3.org/2000/svg" width="38" height="38" viewBox="0 0 38 38"><path fill="#fff" d="M18.93.24a18.62 18.62 0 1 1 0 37.23 18.62 18.62 0 0 1 0-37.23zM3.17 18.92a15.69 15.69 0 1 0 31.38 0 15.69 15.69 0 0 0-31.38 0z"/><path fill="#fff" d="M18.87 3.23a15.69 15.69 0 1 1 0 31.37 15.69 15.69 0 0 1 0-31.37zm5.2 16.05a3.7 3.7 0 0 0-2.01-1.09v-.07a2.88 2.88 0 0 0 1.37-1.14c.33-.52.5-1.11.5-1.77 0-.57-.12-1.08-.36-1.52a2.6 2.6 0 0 0-1.1-1.05c-.44-.24-.93-.4-1.44-.48a18 18 0 0 0-2.27-.11h-4.8v13.59h5.44a8.9 8.9 0 0 0 2.33-.25 4.77 4.77 0 0 0 1.69-.86c.43-.33.77-.76 1.03-1.27s.38-1.1.38-1.78a3.1 3.1 0 0 0-.76-2.2zm-3.61-3.39c0 .3-.05.56-.16.79-.1.22-.29.4-.56.53-.25.11-.5.18-.73.19l-1.23.02h-.43v-2.88h.24l1.38.01c.3.01.57.07.8.17a1 1 0 0 1 .52.5c.11.23.17.45.17.67zm.64 6.41c-.14.26-.37.45-.68.59-.35.15-.7.23-1.04.24-.34.02-.95.02-1.84.02h-.18v-3.4h.63l1.45.01c.36.01.65.05.85.13.34.12.6.3.77.54.17.24.26.57.26.99 0 .32-.07.62-.22.88z"/></svg>