<svg xmlns="http://www.w3.org/2000/svg" width="39" height="38" viewBox="0 0 39 38"><path fill="#fff" d="M19.43.24a18.62 18.62 0 1 1 0 37.23 18.62 18.62 0 0 1 0-37.23zM3.73 18.86a15.7 15.7 0 1 0 31.4 0 15.7 15.7 0 0 0-31.4 0z"/><path fill="#fff" d="M19.43 3.17a15.69 15.69 0 1 1 0 31.38 15.69 15.69 0 0 1 0-31.38zm9.13 10.81c-.65.29-1.35.48-2.09.57a3.66 3.66 0 0 0 1.6-2.02 7.4 7.4 0 0 1-2.3.89 3.64 3.64 0 0 0-6.2 3.32 10.32 10.32 0 0 1-7.52-3.81 3.66 3.66 0 0 0 1.12 4.87 3.68 3.68 0 0 1-1.65-.46v.05a3.65 3.65 0 0 0 2.93 3.57 3.79 3.79 0 0 1-1.65.06 3.64 3.64 0 0 0 3.4 2.53 7.29 7.29 0 0 1-5.39 1.51 10.34 10.34 0 0 0 5.58 1.64c6.7 0 10.37-5.55 10.37-10.37l-.01-.47a7.33 7.33 0 0 0 1.81-1.88z"/></svg>