<svg xmlns="http://www.w3.org/2000/svg" width="38" height="38" viewBox="0 0 38 38"><path fill="#fff" d="M18.93.24a18.62 18.62 0 1 1 0 37.23 18.62 18.62 0 0 1 0-37.23zM3.17 18.92a15.69 15.69 0 1 0 31.38 0 15.69 15.69 0 0 0-31.38 0z"/><path fill="#fff" d="M18.86 3.23a15.69 15.69 0 1 1 .01 31.38 15.69 15.69 0 0 1 0-31.38zm6.28 23.61c.96 0 1.74-.78 1.74-1.75V12.78c0-.96-.78-1.74-1.74-1.74H12.8c-.96 0-1.75.78-1.75 1.74v12.31c0 .97.78 1.75 1.75 1.75zm0-9.1v6.78a.6.6 0 0 1-.61.61H13.46a.6.6 0 0 1-.6-.61v-6.78h1.37a4.93 4.93 0 1 0 9.53 0h1.38zM19 16.13c1.57 0 3.06 1.15 3.06 2.84s-1.5 2.84-3.06 2.84a2.84 2.84 0 1 1 0-5.68zm3.7-3.31h1.86a.6.6 0 0 1 .61.61v1.86a.6.6 0 0 1-.61.61H22.7a.6.6 0 0 1-.62-.61v-1.86a.6.6 0 0 1 .62-.61z"/></svg>