<svg xmlns="http://www.w3.org/2000/svg" width="48" height="49" viewBox="0 0 48 49"><path fill="#323232" d="M24.02 39.33a6.81 6.81 0 0 1-6.82-6.77c0-1.62.82-3.28 1.82-4.6V13.12a4.98 4.98 0 0 1 5-4.95c2.76 0 5 2.22 5 4.95v14.91a7.63 7.63 0 0 1 1.78 4.53 6.78 6.78 0 0 1-6.78 6.77zm4.8-6.77a5.1 5.1 0 0 0-1.75-3.72V13.12a3 3 0 0 0-3-2.95 3 3 0 0 0-3 2.95v15.66a5.24 5.24 0 0 0-1.85 3.78 4.8 4.8 0 0 0 9.6 0zm-2.1-.14a2.77 2.77 0 1 1-3.67-2.61V12.97c0-.52.43-.94.95-.94.53 0 .95.42.95.94v16.87c1.04.4 1.78 1.4 1.78 2.58zM32 16h4a1 1 0 0 1 0 2h-4a1 1 0 0 1 0-2zm0-4h4a1 1 0 0 1 0 2h-4a1 1 0 0 1 0-2zm0 8h4a1 1 0 0 1 0 2h-4a1 1 0 0 1 0-2zm0 4h4a1 1 0 0 1 0 2h-4a1 1 0 0 1 0-2zm-31.52.5a23.7 23.7 0 1 0 47.4 0 23.7 23.7 0 0 0-47.4 0zm23.7 21.7a21.72 21.72 0 0 1-21.7-21.7c0-11.97 9.74-21.7 21.7-21.7 11.97 0 21.7 9.73 21.7 21.7 0 11.97-9.73 21.7-21.7 21.7z"/></svg>